<?xml version="1.0" encoding="UTF-8"?>
<svg width="24px" height="24px" viewBox="0 0 24 24" version="1.1" xmlns="http://www.w3.org/2000/svg" xmlns:xlink="http://www.w3.org/1999/xlink">
    <title>收起</title>
    <g id="页面-1" stroke="none" stroke-width="1" fill="none" fill-rule="evenodd">
        <g id="交互说明" transform="translate(-757, -3335)" fill-rule="nonzero">
            <g id="收起" transform="translate(757, 3335)">
                <rect id="矩形" fill="#000000" opacity="0" x="0" y="0" width="24" height="24"></rect>
                <path d="M11.9999922,1.99999219 C17.523,1.99999219 22.0000078,6.477 22.0000078,11.9999922 C22.0000078,17.523 17.523,22.0000078 11.9999922,22.0000078 C6.477,22.0000078 1.99999219,17.523 1.99999219,11.9999922 C1.99999219,6.477 6.477,1.99999219 11.9999922,1.99999219 Z M10.9999922,10.9999729 L7.5,10.9999729 L7.425,11.0025 C6.88696907,11.040603 6.4761017,11.4985315 6.49633937,12.0375301 C6.51657704,12.5765288 6.96062666,13.0023578 7.5,13.0000175 L10.9999922,13.0000175 L13.0000078,13.0000175 L16.5,13.0000175 L16.575,12.9975 C17.1130309,12.959397 17.5238983,12.5014685 17.5036606,11.9624699 C17.483423,11.4234712 17.0393733,10.9976422 16.5,10.9999729 L13.0000078,10.9999729 L10.9999922,10.9999729 Z" id="形状" fill="#273645"></path>
            </g>
        </g>
    </g>
</svg>