<?xml version="1.0" encoding="UTF-8"?>
<svg width="26.0000056px" height="24px" viewBox="0 0 26.0000056 24" version="1.1" xmlns="http://www.w3.org/2000/svg" xmlns:xlink="http://www.w3.org/1999/xlink">
    <title>design system</title>
    <g id="页面-1" stroke="none" stroke-width="1" fill="none" fill-rule="evenodd">
        <g id="ZW3D-OV-4" transform="translate(-295, -5831)">
            <g id="design-system" transform="translate(292, 5827)">
                <rect id="矩形备份-21" fill-opacity="0" fill="#D8D8D8" opacity="0.379510789" x="0" y="0" width="32" height="32"></rect>
                <g id="编组-35" transform="translate(3, 4)" fill="#000000" fill-rule="nonzero">
                    <g id="编组-34">
                        <path d="M7.73947658,19.8536155 L0.898450072,19.8536155 C0.402981282,19.8536155 0,19.4404132 0,18.9327286 L0,0.920886873 C0,0.412950365 0.402981282,0 0.898450072,0 L22.8284069,0 C23.3238757,0 23.7268569,0.413202318 23.7268569,0.920886873 L23.7268569,8.69765684 L22.4980944,8.69765684 L22.4980944,1.25976316 L1.22901669,1.25976316 L1.22901669,18.5941043 L7.73947658,18.5941043 L7.73947658,19.8536155 Z" id="路径"></path>
                        <path d="M9.07876683,22.994709 L2.91191666,22.994709 C2.60370966,22.994709 2.35394258,22.712774 2.35394258,22.3648274 C2.35394258,22.0168808 2.60370966,21.7349458 2.91191666,21.7349458 L9.07876683,21.7349458 C9.38697383,21.7349458 9.63674092,22.0168808 9.63674092,22.3648274 C9.63674092,22.712774 9.38697383,22.994709 9.07876683,22.994709 Z" id="路径"></path>
                    </g>
                    <g id="编组" transform="translate(11.8627, 8.0251) scale(-1, 1) rotate(90) translate(-11.8627, -8.0251)translate(6.6536, -1.0049)">
                        <path d="M8.74870839,1.39862885 L8.73786737,0.594077787 C8.73786737,0.237631115 8.49936478,2.5313085e-13 8.14161091,2.5313085e-13 C7.78385703,2.5313085e-13 7.54535445,0.237631115 7.54535445,0.594077787 L7.55619548,1.39862885 C6.60218514,1.63625996 5.88667739,2.46796886 5.88667739,3.53730888 C5.88667739,4.6066489 6.60218514,5.4383578 7.55619548,5.67598891 L7.55619548,7.5787352 C7.55619548,7.93518187 7.79469806,8.17281298 8.15245194,8.17281298 C8.51020581,8.17281298 8.74870839,7.93518187 8.74870839,7.5787352 L8.74870839,5.67598891 C9.70271873,5.4383578 10.4182265,4.6066489 10.4182265,3.53730888 C10.4182265,2.46796886 9.70271873,1.63625996 8.74870839,1.39862885 Z M8.74870839,4.48783334 C8.51020581,4.6066489 8.39095452,4.6066489 8.15245194,4.6066489 C7.91394935,4.6066489 7.79469806,4.48783334 7.55619548,4.48783334 C7.1984416,4.36901778 6.95993902,3.89375555 6.95993902,3.53730888 C6.95993902,3.06204665 7.1984416,2.70559998 7.55619548,2.58678442 C7.79469806,2.46796886 7.91394935,2.34915331 8.15245194,2.34915331 C8.39095452,2.34915331 8.51020581,2.46796886 8.74870839,2.46796886 C9.10646227,2.70559998 9.34496485,3.06204665 9.34496485,3.53730888 C9.34496485,3.89375555 9.10646227,4.36901778 8.74870839,4.48783334 Z M2.862031,2.91437589 L2.87287203,0.594077787 C2.87287203,0.237631115 2.63436944,2.52242671e-13 2.27661557,2.52242671e-13 C1.91886169,2.52242671e-13 1.68035911,0.237631115 1.68035911,0.594077787 L1.66951808,2.91437589 C0.71550775,3.152007 0,3.9837159 0,5.05305592 C0,6.12239594 0.71550775,6.95410484 1.66951808,7.19173595 L1.68035911,17.4658869 C1.68035911,17.8223336 1.91886169,18.0599647 2.27661557,18.0599647 C2.63436944,18.0599647 2.87287203,17.8223336 2.87287203,17.4658869 L2.862031,7.19173595 C3.81604133,6.95410484 4.53154908,6.12239594 4.53154908,5.05305592 C4.53154908,3.9837159 3.81604133,3.152007 2.862031,2.91437589 Z M2.862031,6.00358038 C2.74277971,6.12239594 2.50427712,6.12239594 2.26577454,6.12239594 C2.02727196,6.12239594 1.90802067,6.00358038 1.66951808,6.00358038 C1.31176421,5.76594926 1.07326162,5.40950259 1.07326162,5.05305592 C1.07326162,4.57779369 1.31176421,4.22134702 1.66951808,4.10253146 C1.78876937,3.9837159 2.02727196,3.9837159 2.26577454,3.9837159 C2.50427712,3.9837159 2.62352842,4.10253146 2.862031,4.10253146 C3.21978487,4.34016258 3.45828746,4.69660925 3.45828746,5.05305592 C3.45828746,5.40950259 3.21978487,5.76594926 2.862031,6.00358038 Z" id="形状"></path>
                    </g>
                    <g id="编组" transform="translate(10, 9)">
                        <path d="M14.527343,8.81346363 C13.7247641,8.92850966 13.021269,9.39212744 12.6186725,10.0713169 C12.2109431,10.7466578 12.146107,11.5647306 12.4426765,12.291955 C11.7590968,12.8826621 10.9559884,13.3304191 10.0839868,13.6069954 C9.57935654,12.9945358 8.81129882,12.638977 8.0000039,12.6422521 C7.1886719,12.6390035 6.42050374,12.9942609 5.9153374,13.6063552 C5.04346157,13.3298306 4.24039186,12.8823094 3.55666719,12.291955 C3.85343775,11.5648272 3.78884658,10.7467582 3.38133529,10.0713169 C2.97859962,9.39196661 2.27482427,8.92832545 1.4720007,8.81346363 C1.28634126,7.94699095 1.28634126,7.05307555 1.4720007,6.18660287 C2.27461725,6.07171078 2.9782919,5.60838579 3.38133529,4.92942753 C3.78887193,4.25375437 3.85346029,3.43547813 3.55666719,2.70813029 C4.24023947,2.11741875 5.04334114,1.66965534 5.9153374,1.3930711 C6.42029312,2.00558315 7.18846213,2.36132669 8.0000039,2.35849228 C8.82734706,2.35849228 9.58467075,1.99857302 10.0839868,1.3930711 C10.9560518,1.66954845 11.7591879,2.11732095 12.4426765,2.70814912 C12.1461811,3.43560558 12.2110037,4.25384092 12.618653,4.92944636 C13.0215571,5.60824388 13.7249516,6.07154553 14.5273235,6.1866217 C14.7139825,7.05299562 14.7139825,7.94710854 14.5273235,8.81348246 M15.6973227,5.39285606 C15.6131709,5.10054745 15.3272284,4.90573848 15.0133388,4.92686663 C14.5069264,4.96014539 14.0253185,4.71150806 13.7733397,4.28669843 C13.5179223,3.86369921 13.5349942,3.33732122 13.817324,2.93053305 C13.990283,2.67896831 13.9583907,2.34526578 13.7406639,2.12840682 C12.7068657,1.09974456 11.3959799,0.369443896 9.95533455,0.0195819953 C9.6510228,-0.0544429058 9.3344023,0.0864017797 9.19533509,0.357658295 C8.97163767,0.796928379 8.50757858,1.07464151 8.00000475,1.07299641 C7.49242482,1.07463799 7.02836459,0.796916874 6.80467271,0.357639465 C6.66542429,0.0865624609 6.34896093,-0.0542123232 6.04467325,0.0195631652 C4.60404363,0.369109413 3.29312468,1.09919653 2.25932436,2.12772894 C2.04067915,2.34463578 2.00848296,2.67916569 2.1820002,2.93115444 C2.46437994,3.33769025 2.48146257,3.86391513 2.22600407,4.2866796 C1.9736791,4.71114591 1.49231284,4.95965848 0.986004947,4.9268478 C0.671759947,4.90397298 0.384969267,5.09954966 0.302685117,5.39283723 C0.101063876,6.0784456 -0.000801330712,6.78773154 4.7465912e-06,7.50036278 C4.7465912e-06,8.21637878 0.101337603,8.92531465 0.302685117,9.60726693 C0.387683208,9.89871506 0.67265589,10.0930441 0.986004947,10.0732375 C1.49206777,10.042255 1.9725914,10.2905733 2.22600407,10.7140271 C2.48133592,11.1395318 2.46467578,11.658867 2.1820002,12.0689309 C2.00886026,12.3207829 2.04105121,12.6548996 2.25934389,12.8716973 C3.29287279,13.9005594 4.60388744,14.6307101 6.04467325,14.9798819 C6.34884565,15.054273 6.66557931,14.9136448 6.80467271,14.6424459 C7.02842448,14.2033031 7.49252483,13.9257993 8.00000475,13.9277103 C8.5106676,13.9277103 8.96867509,14.2015194 9.19533509,14.6424459 C9.33458351,14.9135229 9.65104687,15.0542977 9.95533455,14.9805222 C11.3961342,14.6310135 12.7071209,13.9006604 13.7406834,12.8716973 C13.9591006,12.6546303 13.9910105,12.3201251 13.817324,12.0682907 C13.5354926,11.6620468 13.5184228,11.1364746 13.7733397,10.7140271 C14.0235001,10.2873525 14.5062945,10.0378608 15.0133388,10.0732375 C15.3266589,10.0912203 15.6113266,9.89775947 15.6973227,9.6072481 C15.8984873,8.92176597 16.0003443,8.21275295 16.0000047,7.50036278 C16.0000047,6.78434678 15.8980061,6.07541091 15.6973227,5.392197" id="形状"></path>
                        <path d="M8.00000531,9.42856892 C6.8973289,9.42856892 6.00000531,8.56279683 6.00000531,7.50036278 C6.00000531,6.43664828 6.8973289,5.57215663 8.00000531,5.57215663 C9.1026789,5.57215663 10.0000053,6.43664828 10.0000053,7.50036278 C10.0000053,8.56279683 9.1026789,9.42856892 8.00000531,9.42856892 M8.0000039,4.2866796 C6.16199738,4.2866796 4.66666641,5.72769358 4.66666641,7.50036278 C4.66666641,9.27239176 6.16199738,10.714046 8.0000039,10.714046 C9.83801041,10.714046 11.3333414,9.2717327 11.3333414,7.50036278 C11.3333414,5.72769358 9.83801041,4.2866796 8.0000039,4.2866796" id="形状"></path>
                    </g>
                </g>
            </g>
        </g>
    </g>
</svg>